<svg data-name="Layer 1" xmlns="http://www.w3.org/2000/svg" viewBox="0 0 53.18 63.03"><path d="M26.59 0C13.38 0 0 2.71 0 7.88v47.27C0 60.32 13.38 63 26.59 63s26.59-2.71 26.59-7.88V7.88C53.18 2.71 39.8 0 26.59 0zm0 2c15.25 0 24.62 3.41 24.62 5.88s-9.37 5.91-24.62 5.91S2 10.35 2 7.88 11.34 2 26.59 2zm0 59.09C11.34 61.06 2 57.62 2 55.15V42.57c4.19 3.1 14.45 4.7 24.62 4.7s20.38-1.6 24.59-4.7v12.58c0 2.47-9.37 5.91-24.62 5.91zm0-15.76C11.34 45.3 2 41.86 2 39.39V26.81c4.19 3.1 14.45 4.7 24.62 4.7s20.38-1.6 24.59-4.7v12.58c0 2.47-9.37 5.91-24.62 5.91zm0-15.76C11.34 29.54 2 26.1 2 23.64V11.05c4.19 3.1 14.45 4.7 24.62 4.7s20.38-1.6 24.59-4.7v12.59c0 2.46-9.37 5.9-24.62 5.9z"/></svg>